<?xml version="1.0" encoding="UTF-8"?>
<svg width="1024" height="500" viewBox="0 0 1024 500" fill="none" xmlns="http://www.w3.org/2000/svg">
  <defs>
    <!-- Background Gradients -->
    <linearGradient id="bgGrad" x1="0%" y1="0%" x2="100%" y2="100%">
      <stop offset="0%" stop-color="#190616"/>
      <stop offset="50%" stop-color="#3d0a28"/>
      <stop offset="100%" stop-color="#6e063b"/>
    </linearGradient>
    
    <radialGradient id="glowPink" cx="80%" cy="30%" r="60%">
      <stop offset="0%" stop-color="#ff4d94" stop-opacity="0.45"/>
      <stop offset="100%" stop-color="#ff4d94" stop-opacity="0"/>
    </radialGradient>
    
    <radialGradient id="glowBerry" cx="20%" cy="80%" r="50%">
      <stop offset="0%" stop-color="#b90760" stop-opacity="0.4"/>
      <stop offset="100%" stop-color="#b90760" stop-opacity="0"/>
    </radialGradient>

    <linearGradient id="btnGrad" x1="0%" y1="0%" x2="100%" y2="0%">
      <stop offset="0%" stop-color="#b90760"/>
      <stop offset="100%" stop-color="#ff4d94"/>
    </linearGradient>

    <filter id="cardShadow" x="-20%" y="-20%" width="140%" height="140%">
      <feDropShadow dx="0" dy="16" stdDeviation="24" flood-color="#000000" flood-opacity="0.6"/>
    </filter>
  </defs>

  <!-- Background Base -->
  <rect width="1024" height="500" fill="url(#bgGrad)"/>
  <rect width="1024" height="500" fill="url(#glowPink)"/>
  <rect width="1024" height="500" fill="url(#glowBerry)"/>

  <!-- Left Side: Branding & Value Proposition -->
  <rect x="64" y="56" width="220" height="36" rx="18" fill="#b90760" fill-opacity="0.7" stroke="#ff4d94" stroke-width="1.5"/>
  <text x="174" y="80" fill="#ffffff" font-family="'Plus Jakarta Sans', 'Ubuntu', 'Segoe UI', sans-serif" font-size="14" font-weight="700" text-anchor="middle" letter-spacing="1">ROTEIROS COM IA</text>

  <text x="64" y="160" fill="#ffffff" font-family="'Plus Jakarta Sans', 'Ubuntu', 'Segoe UI', sans-serif" font-size="56" font-weight="800">DateApp</text>
  <text x="64" y="210" fill="#ffb1c7" font-family="'Be Vietnam Pro', 'Ubuntu', 'Segoe UI', sans-serif" font-size="22" font-weight="500">Encontros inesquecíveis criados por IA</text>
  <text x="64" y="240" fill="#f5dce8" font-family="'Be Vietnam Pro', 'Ubuntu', 'Segoe UI', sans-serif" font-size="16" font-weight="400">Descubra restaurantes, passeios e momentos únicos a dois.</text>

  <!-- Feature Highlights -->
  <rect x="64" y="280" width="420" height="42" rx="12" fill="#2d1024" fill-opacity="0.8" stroke="#ff4d94" stroke-opacity="0.4" stroke-width="1"/>
  <circle cx="88" cy="301" r="6" fill="#ff4d94"/>
  <text x="108" y="307" fill="#ffffff" font-family="'Be Vietnam Pro', 'Ubuntu', sans-serif" font-size="15" font-weight="600">Filtros por Orçamento ($, $$, $$$) &amp; Clima</text>

  <rect x="64" y="334" width="420" height="42" rx="12" fill="#2d1024" fill-opacity="0.8" stroke="#ff4d94" stroke-opacity="0.4" stroke-width="1"/>
  <circle cx="88" cy="355" r="6" fill="#ff4d94"/>
  <text x="108" y="361" fill="#ffffff" font-family="'Be Vietnam Pro', 'Ubuntu', sans-serif" font-size="15" font-weight="600">Recomendações Reais &amp; Verificadas</text>

  <rect x="64" y="388" width="420" height="42" rx="12" fill="#2d1024" fill-opacity="0.8" stroke="#ff4d94" stroke-opacity="0.4" stroke-width="1"/>
  <circle cx="88" cy="409" r="6" fill="#ff4d94"/>
  <text x="108" y="415" fill="#ffffff" font-family="'Be Vietnam Pro', 'Ubuntu', sans-serif" font-size="15" font-weight="600">Integração Direta com Google Maps</text>

  <!-- Right Side: Floating App UI Card -->
  <g filter="url(#cardShadow)">
    <rect x="580" y="55" width="380" height="390" rx="28" fill="#230d1f" fill-opacity="0.92" stroke="#ff4d94" stroke-width="2" stroke-opacity="0.6"/>
    
    <!-- Card Header -->
    <rect x="610" y="85" width="64" height="64" rx="16" fill="url(#btnGrad)"/>
    <path d="M642 124 C642 124 624 112 624 100 C624 93.37 629.37 88 636 88 C639.86 88 641.34 89.8 642 91 C642.66 89.8 644.14 88 648 88 C654.63 88 660 93.37 660 100 C660 112 642 124 642 124 Z" fill="#ffffff"/>
    
    <text x="690" y="112" fill="#ffffff" font-family="'Plus Jakarta Sans', 'Ubuntu', sans-serif" font-size="22" font-weight="700">DateApp</text>
    <text x="690" y="136" fill="#ffb1c7" font-family="'Be Vietnam Pro', 'Ubuntu', sans-serif" font-size="14">Seu assistente de dates com IA</text>

    <!-- Experience Result Item 1 -->
    <rect x="610" y="170" width="320" height="64" rx="16" fill="#3b1734" stroke="#8c7077" stroke-width="0.8"/>
    <text x="630" y="196" fill="#ffffff" font-family="'Plus Jakarta Sans', 'Ubuntu', sans-serif" font-size="15" font-weight="700">Rooftop Lounge &amp; Vinhos</text>
    <text x="630" y="218" fill="#e0bec6" font-family="'Be Vietnam Pro', 'Ubuntu', sans-serif" font-size="12">Vibe Íntima • Vista Panorâmica • $$$</text>

    <!-- Experience Result Item 2 -->
    <rect x="610" y="246" width="320" height="64" rx="16" fill="#3b1734" stroke="#8c7077" stroke-width="0.8"/>
    <text x="630" y="272" fill="#ffffff" font-family="'Plus Jakarta Sans', 'Ubuntu', sans-serif" font-size="15" font-weight="700">Café Cultural &amp; Bistrô</text>
    <text x="630" y="294" fill="#e0bec6" font-family="'Be Vietnam Pro', 'Ubuntu', sans-serif" font-size="12">Música ao Vivo • Aconchegante • $$</text>

    <!-- Action Button -->
    <rect x="610" y="330" width="320" height="52" rx="16" fill="url(#btnGrad)"/>
    <text x="770" y="362" fill="#ffffff" font-family="'Plus Jakarta Sans', 'Ubuntu', sans-serif" font-size="15" font-weight="700" text-anchor="middle">Gerar Novo Roteiro ✨</text>
  </g>
</svg>
